<svg id="Capa_1" enable-background="new 0 0 512 512" height="512" viewBox="0 0 512 512" width="512" xmlns="http://www.w3.org/2000/svg"><g><g><path d="m15 110c-8.284 0-15-6.716-15-15v-80c0-8.284 6.716-15 15-15h80c8.284 0 15 6.716 15 15 0 8.284-6.716 15-15 15h-65v65c0 8.284-6.716 15-15 15z" fill="#09607d"/><path d="m497 110c-8.284 0-15-6.716-15-15v-65h-65c-8.284 0-15-6.716-15-15 0-8.284 6.716-15 15-15h80c8.284 0 15 6.716 15 15v80c0 8.284-6.716 15-15 15z" fill="#07485e"/><path d="m95 512h-80c-8.284 0-15-6.716-15-15v-80c0-8.284 6.716-15 15-15 8.284 0 15 6.716 15 15v65h65c8.284 0 15 6.716 15 15 0 8.284-6.716 15-15 15z" fill="#09607d"/><path d="m497 512h-80c-8.284 0-15-6.716-15-15 0-8.284 6.716-15 15-15h65v-65c0-8.284 6.716-15 15-15 8.284 0 15 6.716 15 15v80c0 8.284-6.716 15-15 15z" fill="#07485e"/></g><g><circle cx="256" cy="256" fill="#09607d" r="210"/><g><path d="m256 46v420c115.98 0 210-94.02 210-210s-94.02-210-210-210z" fill="#07485e"/></g><path d="m415.099 96.901c-42.497-42.497-98.999-65.901-159.099-65.901s-116.602 23.404-159.099 65.901-65.901 98.999-65.901 159.099 23.404 116.602 65.901 159.099 98.999 65.901 159.099 65.901 116.602-23.404 159.099-65.901 65.901-98.999 65.901-159.099-23.404-116.602-65.901-159.099zm-144.099-35.33c95.591 7.306 172.123 83.838 179.429 179.429h-60.266c-6.94-62.479-56.684-112.223-119.163-119.162zm88.924 179.429h-88.924v-88.924c45.916 6.597 82.327 43.008 88.924 88.924zm-118.924 0h-88.924c6.597-45.916 43.008-82.327 88.924-88.924zm30 30h88.924c-6.597 45.916-43.008 82.327-88.924 88.924zm-30-209.429v60.266c-62.479 6.94-112.223 56.684-119.162 119.163h-60.267c7.306-95.591 83.838-172.123 179.429-179.429zm-179.429 209.429h158.215l-111.802 111.803c-26.218-30.559-43.164-69.293-46.413-111.803zm179.429 179.429c-42.51-3.249-81.244-20.195-111.803-46.412l42.586-42.586c19.423 15.547 43.217 25.846 69.217 28.734zm0-90.502c-17.763-2.552-34.105-9.565-47.848-19.866l47.848-47.849v3.788zm30 90.502v-60.266c62.479-6.939 112.223-56.683 119.162-119.162h60.266c-7.305 95.59-83.837 172.122-179.428 179.428z" fill="#fff5f5"/><g><path d="m415.099 96.901c-42.497-42.497-98.999-65.901-159.099-65.901v450c60.1 0 116.602-23.404 159.099-65.901s65.901-98.999 65.901-159.099-23.404-116.602-65.901-159.099zm-144.099-35.33c95.591 7.306 172.123 83.838 179.429 179.429h-60.266c-6.94-62.479-56.684-112.223-119.163-119.162zm0 90.505c45.916 6.597 82.327 43.008 88.924 88.924h-88.924zm0 118.924h88.924c-6.597 45.916-43.008 82.327-88.924 88.924zm0 179.429v-60.266c62.479-6.939 112.223-56.683 119.162-119.162h60.266c-7.305 95.59-83.837 172.122-179.428 179.428z" fill="#f5f0eb"/></g><path d="m256 301c-24.813 0-45-20.187-45-45s20.187-45 45-45 45 20.187 45 45-20.187 45-45 45z" fill="#fff5f5"/><g><path d="m256 211v90c24.813 0 45-20.187 45-45s-20.187-45-45-45z" fill="#f5f0eb"/></g><path d="m256 271c-8.271 0-15-6.729-15-15s6.729-15 15-15 15 6.729 15 15-6.729 15-15 15z" fill="#ff6c6c"/><path d="m171.147 201.147c-16.542 0-30-13.458-30-30s13.458-30 30-30 30 13.458 30 30-13.458 30-30 30z" fill="#00ff94"/><path d="m404.492 137.508c-16.542 0-30-13.458-30-30s13.458-30 30-30 30 13.458 30 30-13.457 30-30 30z" fill="#00ee8a"/><path d="m340.853 370.853c-16.542 0-30-13.458-30-30s13.458-30 30.001-30c16.542 0 29.999 13.458 29.999 30s-13.458 30-30 30z" fill="#ff405c"/><g><g><path d="m256 241v30c8.271 0 15-6.729 15-15s-6.729-15-15-15z" fill="#ff405c"/></g></g></g></g></svg>